# xmcd CD database file
#
# Track frame offsets:
#	150
#	19407
#	38445
#	51372
#	64617
#	82552
#	98195
#	109567
#	128227
#	147100
#	162437
#
# Disc length: 2596 seconds
#
# Revision: 1
# Processed by: cddbd v1.5.1PL2 Copyright (c) Steve Scherf et al.
# Submitted via: CDex 1.51
#
DISCID=840a220b
DTITLE=ニューロティカ - ハーレム野郎
DYEAR=1989
DGENRE=ロック (日本)
TTITLE0=・・・to be HARLEM
TTITLE1=夏・NANCY・16才
TTITLE2=Punch2 Ruby2 Lumba Purple Ranba Ruby2 Lumba
TTITLE3=悲しきハートブレーカー
TTITLE4=シェリーは祭りが大好き
TTITLE5=WHISKEy ROCK
TTITLE6=LET'S FUCK 1989
TTITLE7=Fuckin' Boys 〜ガンツタレナガシの術〜
TTITLE8=DANCE DE NEW ROTEeKA
TTITLE9=THE OUTLOW'S SONG
TTITLE10=ROCK and ROLL RAILROAD
EXTD=YEAR: 1989
EXTT0=
EXTT1=
EXTT2=
EXTT3=
EXTT4=
EXTT5=
EXTT6=
EXTT7=
EXTT8=
EXTT9=
EXTT10=
PLAYORDER=
